<?xml version="1.0" standalone="no"?>
<!DOCTYPE svg PUBLIC "-//W3C//DTD SVG 20010904//EN"
 "http://www.w3.org/TR/2001/REC-SVG-20010904/DTD/svg10.dtd">
<svg version="1.0" xmlns="http://www.w3.org/2000/svg"
 width="326.000000pt" height="326.000000pt" viewBox="0 0 326.000000 326.000000"
 preserveAspectRatio="xMidYMid meet">

<g transform="translate(0.000000,326.000000) scale(0.100000,-0.100000)"
fill="red" stroke="none">
<path d="M1450 3219 c-153 -26 -327 -63 -345 -74 -11 -6 -58 -27 -105 -44
-115 -44 -126 -51 -270 -146 -249 -165 -473 -438 -575 -700 -15 -38 -35 -86
-45 -105 -18 -37 -25 -65 -35 -139 -4 -23 -10 -53 -15 -65 -4 -12 -14 -99 -20
-192 -10 -130 -10 -194 -1 -277 14 -129 56 -347 68 -356 5 -3 24 -46 42 -96
118 -316 405 -639 716 -804 90 -48 273 -118 330 -126 28 -4 77 -13 110 -20 33
-8 108 -17 167 -20 l108 -7 2 412 3 413 -23 15 c-26 17 -125 54 -217 82 -33
10 -100 32 -150 49 -49 17 -110 38 -135 45 -25 8 -62 21 -84 30 l-38 17 3 314
4 315 130 122 c71 68 247 236 390 373 143 138 325 311 405 385 80 74 217 204
305 288 181 175 178 163 56 203 -36 12 -71 25 -76 30 -19 14 -209 58 -325 73
-123 17 -292 19 -380 5z"/>
<path d="M2755 2643 c-33 -32 -161 -155 -285 -273 -124 -119 -319 -304 -435
-411 -331 -308 -458 -436 -451 -455 3 -8 6 -146 6 -306 l0 -289 27 21 c35 27
131 118 389 366 117 112 214 204 218 204 3 0 6 -306 6 -680 l0 -680 37 15 c69
29 267 154 348 219 254 204 429 455 528 756 54 163 83 378 74 553 -9 169 -55
428 -86 483 -6 11 -22 51 -37 89 -27 70 -74 161 -126 244 -36 58 -142 200
-148 201 -3 0 -32 -26 -65 -57z"/>
</g>
</svg>
