<?xml version="1.0" standalone="no"?>
<!DOCTYPE svg PUBLIC "-//W3C//DTD SVG 20010904//EN"
 "http://www.w3.org/TR/2001/REC-SVG-20010904/DTD/svg10.dtd">
<svg version="1.0" xmlns="http://www.w3.org/2000/svg"
 width="366.000000pt" height="96.000000pt" viewBox="0 0 366.000000 96.000000"
 preserveAspectRatio="xMidYMid meet">

<g transform="translate(0.000000,96.000000) scale(0.100000,-0.100000)"
fill="#fff" stroke="none">
<path d="M14 937 c-3 -8 -4 -49 -2 -93 l3 -79 105 -5 105 -5 5 -365 5 -365 97
-3 98 -3 2 368 3 368 118 3 117 3 0 94 0 95 -325 0 c-263 0 -327 -3 -331 -13z"/>
<path d="M3280 552 c0 -422 1 -426 65 -480 20 -16 53 -34 74 -41 44 -13 131
-15 131 -3 0 4 -18 25 -40 47 -72 70 -80 101 -80 295 l0 170 98 0 c53 0 102 4
108 8 16 10 24 110 9 122 -6 5 -56 11 -111 12 l-99 3 -5 120 -5 120 -72 3 -73
3 0 -379z"/>
<path d="M920 665 c-65 -19 -131 -68 -177 -131 -44 -63 -57 -106 -57 -189 1
-59 6 -82 33 -137 36 -72 65 -103 132 -140 89 -49 156 -58 246 -34 64 17 106
43 155 93 37 39 81 113 73 122 -3 2 -31 -9 -62 -25 -102 -51 -248 -44 -335 15
-37 26 -71 78 -62 93 3 4 107 8 232 8 125 0 232 4 239 8 15 9 -3 95 -31 154
-24 50 -90 114 -146 143 -62 31 -167 40 -240 20z m165 -128 c45 -26 87 -82 83
-112 -3 -19 -11 -20 -147 -23 -156 -3 -166 0 -150 47 14 39 44 70 86 91 50 25
80 24 128 -3z"/>
<path d="M1495 661 c-55 -25 -99 -71 -113 -118 -17 -57 -16 -237 1 -252 9 -7
90 -12 228 -13 l214 -3 3 -28 c2 -20 -5 -35 -27 -57 l-29 -30 -195 0 c-214 0
-207 2 -207 -63 0 -18 3 -42 6 -55 l7 -23 221 3 c208 3 224 4 268 26 31 16 57
39 78 70 31 46 31 46 28 172 l-3 125 -220 3 c-159 2 -221 6 -227 15 -11 17 1
58 25 85 20 21 26 22 211 22 105 0 197 4 204 9 9 5 12 26 10 67 l-3 59 -220 2
c-195 2 -224 1 -260 -16z"/>
<path d="M2134 666 c-49 -22 -99 -72 -113 -113 -8 -24 -11 -81 -9 -153 l3
-115 223 -3 222 -2 0 -34 c0 -19 -9 -44 -19 -57 -19 -23 -24 -24 -223 -29
l-203 -5 0 -65 0 -65 210 -2 c197 -2 213 -1 264 20 34 14 65 36 85 60 l31 39
0 136 0 137 -220 5 -220 5 -3 36 c-3 30 2 41 24 58 25 20 39 21 213 21 102 0
192 4 200 9 12 8 17 48 13 109 l-2 22 -222 0 c-164 -1 -231 -4 -254 -14z"/>
<path d="M2647 674 c-4 -4 -7 -33 -7 -65 0 -43 4 -58 16 -63 9 -3 101 -6 205
-6 175 0 190 -1 209 -20 11 -11 22 -31 26 -45 14 -54 13 -54 -228 -57 l-223
-3 -3 -111 c-4 -157 25 -220 123 -265 35 -16 67 -19 247 -19 113 0 213 3 222
6 14 5 16 37 16 253 -1 236 -2 248 -23 290 -13 25 -40 58 -61 75 l-38 31 -237
3 c-130 2 -240 0 -244 -4z m448 -454 l0 -55 -119 -3 c-95 -2 -123 1 -143 13
-28 19 -46 60 -37 87 5 17 16 18 152 16 l147 -3 0 -55z"/>
</g>
</svg>
